# xmcd CD database file
#
# Track frame offsets:
#	150
#	17455
#	34745
#	51722
#	65810
#	83310
#	99047
#	118627
#	137977
#	155070
#	174635
#
# Disc length: 2597 seconds
#
# Revision: 2
# Processed by: cddbd v1.5.2PL0 Copyright (c) Steve Scherf et al.
# Submitted via: CDex 1.70beta3
#
DISCID=8e0a230b
DTITLE=Lee Aaron - Lee Aaron (4th)
DYEAR=1987
DGENRE=Melodic Hard Rock
TTITLE0=Powerline
TTITLE1=Hands Are Tied
TTITLE2=Only Human
TTITLE3=Empty Heart
TTITLE4=Number One
TTITLE5=Don't Rain On My Parade
TTITLE6=Goin' Off The Deep End
TTITLE7=If This Is Love
TTITLE8=Eye For An Eye
TTITLE9=Heartbeat Of The World
TTITLE10=Dream With Me
EXTD=YEAR: 1987
EXTT0=
EXTT1=
EXTT2=
EXTT3=
EXTT4=
EXTT5=
EXTT6=
EXTT7=
EXTT8=
EXTT9=
EXTT10=
PLAYORDER=
